{"title":"Earth To Echo 2014 FIRST HDCAM ENGLISH x264 Pimp4003","uid":11111367,"size":1505091606,"categoryP":"video","categoryS":"movies","magnet":"?xt=urn:btih:f64c9ba533cd5b0eef2c4387f5dd945cf7165d14&amp;dn=Earth+To+Echo+2014+FIRST+HDCAM+ENGLISH+x264+Pimp4003&amp;tr=udp%3A%2F%2Ftracker.openbittorrent.com%3A80&amp;tr=udp%3A%2F%2Fopen.demonii.com%3A1337&amp;tr=udp%3A%2F%2Ftracker.coppersurfer.tk%3A6969&amp;tr=udp%3A%2F%2Fexodus.desync.com%3A6969","seeders":1,"leechers":0,"uploader":"shawnmurthy","files":-1,"time":1411799344,"description":"SOURCE IS SPECTRE....ENGLISH AUDIO.......HAS SPANISH SUBS.....NOT BAD FOR A FIRST CAM....VIDEO HAD SOME FLICKERING AND BRIGHTENED THE DARK SCENES BY A LITTLE SO NOT TO OVER DO IT.....AUDIO IS WAY BETTER....NO ECHO, NO BACK GROUND NOISE OR ANYTHING.....ALSO SYNCED IT UP......ENJOY.....PIMP4003\n &lt;a href=&quot;\nhttp://i.imgur.com/fW5GLTr.jpg&quot; rel=&quot;nofollow&quot; target=&quot;_NEW&quot;&gt;\nhttp://i.imgur.com/fW5GLTr.jpg&lt;/a&gt;\n &lt;a href=&quot;\nhttp://i.imgur.com/3jBtkwl.jpg&quot; rel=&quot;nofollow&quot; target=&quot;_NEW&quot;&gt;\nhttp://i.imgur.com/3jBtkwl.jpg&lt;/a&gt;\n &lt;a href=&quot;\nhttp://i.imgur.com/cWBHHUK.png&quot; rel=&quot;nofollow&quot; target=&quot;_NEW&quot;&gt;\nhttp://i.imgur.com/cWBHHUK.png&lt;/a&gt;\n &lt;a href=&quot;\nhttp://i.imgur.com/0Bo27DO.png&quot; rel=&quot;nofollow&quot; target=&quot;_NEW&quot;&gt;\nhttp://i.imgur.com/0Bo27DO.png&lt;/a&gt;\n\n\nEarth To Echo 2014 FIRST HDCAM ENGLISH x264 Pimp4003\n\nENJOY\n\nPIMP4003\n\nVideo\nID                                       : 0\nFormat                                   : MPEG-4 Visual\nFormat profile                           : Simple@L1\nFormat settings, BVOP                    : No\nFormat settings, QPel                    : No\nFormat settings, GMC                     : No warppoints\nFormat settings, Matrix                  : Default (H.263)\nCodec ID                                 : DIVX\nCodec ID/Info                            : Project Mayo\nCodec ID/Hint                            : DivX 4\nDuration                                 : 1h 22mn\nBit rate                                 : 2 290 Kbps\nWidth                                    : 720 pixels\nHeight                                   : 414 pixels\nDisplay aspect ratio                     : 1.739\nFrame rate                               : 23.976 fps\nColor space                              : YUV\nChroma subsampling                       : 4:2:0\nBit depth                                : 8 bits\nScan type                                : Progressive\nCompression mode                         : Lossy\nBits/(Pixel*Frame)                       : 0.320\nStream size                              : 1.32 GiB (94%)\nWriting library                          : Lavc52.97.0\n\nAudio\nID                                       : 1\nFormat                                   : MPEG Audio\nFormat version                           : Version 1\nFormat profile                           : Layer 3\nMode                                     : Joint stereo\nMode extension                           : MS Stereo\nCodec ID                                 : 55\nCodec ID/Hint                            : MP3\nDuration                                 : 1h 22mn\nBit rate mode                            : Constant\nBit rate                                 : 128 Kbps\nChannel(s)                               : 2 channels\nSampling rate                            : 44.1 KHz\nCompression mode                         : Lossy\nStream size                              : 75.5 MiB (5%)\nAlignment                                : Aligned on interleaves\nInterleave, duration                     : 26 ms (0.63 video frame)\nInterleave, preload duration             : 26 ms\n","torrent":{"xt":"urn:btih:f64c9ba533cd5b0eef2c4387f5dd945cf7165d14","amp;dn":"Earth+To+Echo+2014+FIRST+HDCAM+ENGLISH+x264+Pimp4003","amp;tr":["udp%3A%2F%2Ftracker.openbittorrent.com%3A80","udp%3A%2F%2Fopen.demonii.com%3A1337","udp%3A%2F%2Ftracker.coppersurfer.tk%3A6969","udp%3A%2F%2Fexodus.desync.com%3A6969"],"infoHash":"f64c9ba533cd5b0eef2c4387f5dd945cf7165d14","infoHashBuffer":{"type":"Buffer","data":[246,76,155,165,51,205,91,14,239,44,67,135,245,221,148,92,247,22,93,20]},"announce":[],"urlList":[]}}